<svg xmlns="http://www.w3.org/2000/svg" viewBox="0 0 16 16" shape-rendering="crispEdges"><path d="M0 0h16v1H0zM0 1h1v1H0zM15 1h1v1H15zM0 2h1v1H0zM15 2h1v1H15zM0 3h1v1H0zM2 3h2v1H2zM15 3h1v1H15zM0 4h1v1H0zM3 4h2v1H3zM15 4h1v1H15zM0 5h1v1H0zM4 5h2v1H4zM15 5h1v1H15zM0 6h1v1H0zM5 6h2v1H5zM15 6h1v1H15zM0 7h1v1H0zM4 7h2v1H4zM15 7h1v1H15zM0 8h1v1H0zM3 8h2v1H3zM15 8h1v1H15zM0 9h1v1H0zM2 9h2v1H2zM15 9h1v1H15zM0 10h1v1H0zM15 10h1v1H15zM0 11h1v1H0zM7 11h6v1H7zM15 11h1v1H15zM0 12h1v1H0zM15 12h1v1H15zM0 13h16v1H0z"/></svg>
