<svg xmlns="http://www.w3.org/2000/svg" viewBox="0 0 16 16" shape-rendering="crispEdges"><path fill="#1c1c1c" d="M5 0h6v1H5zM3 1h2v1H3zM11 1h2v1H11zM2 2h1v1H2zM13 2h1v1H13zM1 3h1v1H1zM14 3h1v1H14zM1 4h1v1H1zM14 4h1v1H14zM0 5h1v1H0zM15 5h1v1H15zM0 6h1v1H0zM6 6h4v1H6zM15 6h1v1H15zM0 7h7v1H0zM9 7h7v1H9zM0 8h7v1H0zM9 8h7v1H9zM0 9h1v1H0zM6 9h4v1H6zM15 9h1v1H15zM0 10h1v1H0zM15 10h1v1H15zM1 11h1v1H1zM14 11h1v1H14zM1 12h1v1H1zM14 12h1v1H14zM2 13h1v1H2zM13 13h1v1H13zM3 14h2v1H3zM11 14h2v1H11zM5 15h6v1H5z"/><path fill="#e3350d" d="M5 1h6v1H5zM3 2h10v1H3zM2 3h2v1H2zM6 3h8v1H6zM2 4h1v1H2zM5 4h9v1H5zM1 5h14v1H1zM1 6h5v1H1zM10 6h5v1H10z"/><path fill="#ffffff" d="M4 3h2v1H4zM3 4h2v1H3zM7 7h2v1H7zM7 8h2v1H7zM1 9h5v1H1zM10 9h5v1H10zM1 10h14v1H1zM2 11h12v1H2zM2 12h11v1H2zM3 13h9v1H3zM5 14h6v1H5z"/><path fill="#cfcfcf" d="M13 12h1v1H13zM12 13h1v1H12z"/></svg>
